<svg xmlns="http://www.w3.org/2000/svg" version="1.1" xmlns:xlink="http://www.w3.org/1999/xlink" xmlns:svgjs="http://svgjs.com/svgjs" width="1440" height="560" preserveAspectRatio="none" viewBox="0 0 1440 560"><g mask="url(&quot;#SvgjsMask1006&quot;)" fill="none"><rect width="1440" height="560" x="0" y="0" fill="rgba(20, 135, 116, 0.45)"></rect><path d="M0,492.653C95.354,491.827,204.168,489.843,271.244,422.064C337.381,355.234,317.386,245.554,335.788,153.349C349.65,83.894,378.938,17.01,365.981,-52.62C353.303,-120.746,311.622,-178.377,264.587,-229.266C218.714,-278.897,160.362,-310.116,99.961,-340.437C27.005,-377.061,-43.311,-431.007,-124.699,-424.687C-211.892,-417.916,-290.479,-367.122,-352.35,-305.313C-417.048,-240.679,-461.427,-158.517,-480.633,-69.105C-500.729,24.451,-500.152,123.277,-463.389,211.623C-425.946,301.603,-357.613,376.25,-274.28,426.788C-192.222,476.553,-95.965,493.484,0,492.653" fill="rgba(13, 88, 75, 0.45)"></path><path d="M1440 1073.113C1550.485 1074.3139999999999 1663.4859999999999 1109.588 1764.665 1065.189 1873.02 1017.6410000000001 1971.7069999999999 932.569 2012.989 821.675 2053.464 712.948 2007.298 595.274 1981.725 482.11199999999997 1958.0990000000002 377.562 1946.614 262.317 1869.711 187.65300000000002 1794.621 114.75 1678.259 120.043 1577.971 90.11500000000001 1477.144 60.02600000000001 1377.904-24.288999999999987 1278.9 11.344000000000051 1179.539 47.10500000000002 1172.019 188.42000000000002 1097.3519999999999 263.094 1013.9010000000001 346.553 833.15 353.554 819.499 470.78499999999997 805.706 589.235 987.304 635.771 1041.593 741.947 1092.051 840.63 1034.605 987.331 1119.839 1058.18 1203.6970000000001 1127.885 1330.961 1071.9279999999999 1440 1073.113" fill="rgba(27, 182, 157, 0.45)"></path></g><defs><mask id="SvgjsMask1006"><rect width="1440" height="560" fill="#ffffff"></rect></mask></defs></svg>