<svg xmlns="http://www.w3.org/2000/svg" version="1.1" xmlns:xlink="http://www.w3.org/1999/xlink" xmlns:svgjs="http://svgjs.com/svgjs" width="1440" height="560" preserveAspectRatio="none" viewBox="0 0 1440 560"><g mask="url(&quot;#SvgjsMask1145&quot;)" fill="none"><rect width="1440" height="560" x="0" y="0" fill="rgba(20, 99, 86, 1)"></rect><path d="M0,378.081C69.272,371.697,116.328,309.683,174.762,271.935C233.027,234.296,298.608,209.99,342.872,156.584C396.78,91.542,464.159,18.583,454.285,-65.316C444.417,-149.165,354.209,-195.506,294.421,-255.117C239.229,-310.145,193.242,-381.67,117.712,-400.889C42.934,-419.917,-32.882,-384.814,-104.732,-356.683C-171.221,-330.651,-235.422,-298.474,-282.03,-244.38C-328.557,-190.379,-354.915,-123.024,-366.633,-52.714C-378.544,18.754,-380.348,94.054,-349.351,159.543C-318.549,224.619,-257.804,267.99,-196.765,306.173C-136.339,343.973,-70.974,384.621,0,378.081" fill="#0d4038"></path><path d="M1440 1220.016C1572.632 1224.6219999999998 1733.533 1255.454 1825.374 1159.654 1920.121 1060.8229999999999 1851.842 894.943 1880.071 760.9739999999999 1900.442 664.299 1959.5059999999999 582.582 1967.7179999999998 484.126 1977.6889999999999 364.58299999999997 2005.6019999999999 228.36399999999998 1932.425 133.31099999999998 1859.112 38.08000000000004 1721.722 17.214000000000055 1601.831 8.855000000000018 1496.401 1.504000000000019 1404.747 65.42500000000001 1301.8029999999999 89.344 1190.573 115.18799999999999 1051.3809999999999 72.32499999999999 972.655 155.043 894.237 237.437 933.2149999999999 372.46500000000003 924.413 485.87 916.243 591.121 899.517 693.207 922.892 796.155 950.658 918.442 974.469 1053.976 1071.452 1133.471 1171.065 1215.121 1311.278 1215.546 1440 1220.016" fill="#1b8674"></path></g><defs><mask id="SvgjsMask1145"><rect width="1440" height="560" fill="#ffffff"></rect></mask></defs></svg>