<svg xmlns="http://www.w3.org/2000/svg" version="1.1" xmlns:xlink="http://www.w3.org/1999/xlink" xmlns:svgjs="http://svgjs.com/svgjs" width="1600" height="600" preserveAspectRatio="none" viewBox="0 0 1600 600"><g mask="url(&quot;#SvgjsMask1190&quot;)" fill="none"><rect width="1600" height="600" x="0" y="0" fill="rgba(255, 241, 189, 1)"></rect><path d="M 0,584 C 53.4,495.8 160.2,187 267,143 C 373.8,99 427.2,358.6 534,364 C 640.8,369.4 694.2,152.2 801,170 C 907.8,187.8 961.2,456 1068,453 C 1174.8,450 1228.6,154 1335,155 C 1441.4,156 1547,397.4 1600,458L1600 600L0 600z" fill="rgba(20, 99, 86, 1)"></path><path d="M 0,189 C 80,213.8 240,337.6 400,313 C 560,288.4 640,60.4 800,66 C 960,71.6 1040,352.6 1200,341 C 1360,329.4 1520,74.6 1600,8L1600 600L0 600z" fill="rgba(163, 218, 141, 1)"></path><path d="M 0,126 C 64,220.6 192,588.6 320,599 C 448,609.4 512,225.6 640,178 C 768,130.4 832,383.8 960,361 C 1088,338.2 1152,30.8 1280,64 C 1408,97.2 1536,434.4 1600,527L1600 600L0 600z" fill="rgba(243, 200, 146, 1)"></path></g><defs><mask id="SvgjsMask1190"><rect width="1600" height="600" fill="#ffffff"></rect></mask></defs></svg>